<!-- icon666.com - MILLIONS OF FREE VECTOR ICONS --><svg viewBox="0 -40 480 480" xmlns="http://www.w3.org/2000/svg"><path d="m472 200.039062c0-106.039062-103.871094-192-232-192s-232 85.960938-232 192c0 106.039063 103.871094 192 232 192s232-85.960937 232-192zm0 0" fill="#506f86"></path><path d="m320 88c0 8.835938-7.164062 16-16 16s-16-7.164062-16-16 7.164062-16 16-16 16 7.164062 16 16zm0 0" fill="#2f3c4f"></path><path d="m192 312h-9.472656c-2.40625-6.785156-7.742188-12.121094-14.527344-14.527344v-9.472656c0-4.417969-3.582031-8-8-8s-8 3.582031-8 8v9.472656c-10.53125 3.699219-17.109375 14.1875-15.855469 25.28125 1.257813 11.09375 10.007813 19.84375 21.101563 21.101563 11.09375 1.253906 21.582031-5.324219 25.28125-15.855469h9.472656c4.417969 0 8-3.582031 8-8s-3.582031-8-8-8zm0 0" fill="#2f3c4f"></path><path d="m272 200c0-8.835938-14.328125-16-32-16s-32 7.164062-32 16 14.328125 16 32 16 32-7.164062 32-16zm0 0" fill="#fbb040"></path><path d="m304 288c0 8.835938-7.164062 16-16 16s-16-7.164062-16-16 7.164062-16 16-16 16 7.164062 16 16zm0 0" fill="#2f3c4f"></path><g fill="#3a5160"><path d="m240 0c-132.335938 0-240 89.71875-240 200s107.664062 200 240 200 240-89.71875 240-200-107.664062-200-240-200zm0 384c-15.457031.003906-30.886719-1.3125-46.121094-3.945312 24.601563-3.394532 48.875-8.839844 72.570313-16.269532 76.902343-24.722656 117.550781-67.464844 117.550781-123.617187.742188-23.242188-8.503906-45.6875-25.398438-61.664063-40.800781-38.464844-115.914062-34.503906-119.074218-34.328125-2.121094.121094-4.105469 1.082031-5.515625 2.667969-1.414063 1.585938-2.136719 3.667969-2.011719 5.789062.074219 2.136719 1.019531 4.148438 2.617188 5.570313 1.597656 1.421875 3.707031 2.125 5.839843 1.949219.679688-.046875 71.472657-3.695313 107.199219 30.023437 13.609375 12.992188 21.015625 31.1875 20.34375 49.992188 0 118.800781-214.128906 127.921875-216.289062 128-.507813.066406-1.003907.1875-1.488282.359375-78.933594-28.488282-134.222656-93.289063-134.222656-168.527344 0-101.457031 100.488281-184 224-184 15.621094-.011719 31.214844 1.328125 46.609375 4-24.765625 3.402344-49.203125 8.871094-73.058594 16.351562-76.902343 24.753907-117.550781 67.496094-117.550781 123.648438-.742188 23.238281 8.503906 45.683594 25.398438 61.65625 33.25 31.351562 89.304687 34.527344 110.601562 34.527344 4.800781 0 7.871094-.167969 8.464844-.199219 2.121094-.121094 4.105468-1.078125 5.519531-2.664063 1.414063-1.582031 2.136719-3.664062 2.015625-5.785156-.046875-2.148437-.988281-4.183594-2.59375-5.613281-1.609375-1.429687-3.738281-2.125-5.878906-1.921875-.695313.046875-71.472656 3.695312-107.199219-30.015625-13.601563-12.996094-21-31.183594-20.328125-49.984375 0-118.800781 214.128906-127.929688 216.289062-128 .601563-.070312 1.191407-.214844 1.757813-.425781 78.792969 28.539062 133.953125 93.273437 133.953125 168.425781 0 101.457031-100.488281 184-224 184zm0 0"></path><path d="m429.65625 234.34375c-3.125-3.121094-8.1875-3.121094-11.3125 0l-2.34375 2.34375-2.34375-2.34375c-3.140625-3.03125-8.128906-2.988281-11.214844.097656-3.085937 3.085938-3.128906 8.074219-.097656 11.214844l2.34375 2.34375-2.34375 2.34375c-2.078125 2.007812-2.914062 4.984375-2.179688 7.78125.730469 2.796875 2.914063 4.980469 5.710938 5.710938 2.796875.734374 5.773438-.101563 7.78125-2.179688l2.34375-2.34375 2.34375 2.34375c3.140625 3.03125 8.128906 2.988281 11.214844-.097656 3.085937-3.085938 3.128906-8.074219.097656-11.214844l-2.34375-2.34375 2.34375-2.34375c3.121094-3.125 3.121094-8.1875 0-11.3125zm0 0"></path><path d="m56 160c0 4.417969 3.582031 8 8 8s8-3.582031 8-8c4.417969 0 8-3.582031 8-8s-3.582031-8-8-8c0-4.417969-3.582031-8-8-8s-8 3.582031-8 8c-4.417969 0-8 3.582031-8 8s3.582031 8 8 8zm0 0"></path><path d="m216 96h-32c-4.417969 0-8 3.582031-8 8s3.582031 8 8 8h32c4.417969 0 8-3.582031 8-8s-3.582031-8-8-8zm0 0"></path><path d="m184 128h-16c-4.417969 0-8 3.582031-8 8s3.582031 8 8 8h16c4.417969 0 8-3.582031 8-8s-3.582031-8-8-8zm0 0"></path><path d="m88 232c0-4.417969-3.582031-8-8-8h-32c-4.417969 0-8 3.582031-8 8s3.582031 8 8 8h32c4.417969 0 8-3.582031 8-8zm0 0"></path><path d="m88 256h-16c-4.417969 0-8 3.582031-8 8s3.582031 8 8 8h16c4.417969 0 8-3.582031 8-8s-3.582031-8-8-8zm0 0"></path><path d="m424 144c0-4.417969-3.582031-8-8-8h-40c-4.417969 0-8 3.582031-8 8s3.582031 8 8 8h40c4.417969 0 8-3.582031 8-8zm0 0"></path><path d="m432 168h-24c-4.417969 0-8 3.582031-8 8s3.582031 8 8 8h24c4.417969 0 8-3.582031 8-8s-3.582031-8-8-8zm0 0"></path></g></svg>